#!OML:ASF E:\Style4\Style4.ASF
:FULLY-SPECIFIED
:DEGREES
845
root 0.181782 16.7196 -2.30673 3.94453 -0.298201 2.59409
lowerback 18.2483 1.74175 -0.946411
upperback 9.1279 2.12356 0.204844
thorax -0.477253 1.0256 0.365027
lowerneck 5.5885 -4.97077 -5.01554
upperneck -9.69324 -6.66152 5.40815
head -3.8161 -3.37879 3.0364
rclavicle 8.74653e-015 3.97569e-015
rhumerus 22.7388 5.07604 -71.6973
rradius 113.722
rwrist 20.96
rhand 19.1078 -4.00768
rfingers 7.12502
rthumb 43.703 -28.0004
lclavicle 8.74653e-015 3.97569e-015
lhumerus 24.1548 -20.8013 67.5114
lradius 120.112
lwrist -11.2014
lhand 12.1061 36.8222
lfingers 7.12502
lthumb 37.121 62.8553
rfemur -36.3503 -0.890315 15.8148
rtibia 55.9279
rfoot -22.3044 -11.1258
rtoes -11.9018
lfemur -35.651 0.701279 -21.8777
ltibia 54.1075
lfoot -21.8203 6.53752
ltoes -17.0717
846
root 0.177907 16.7092 -2.30781 3.90391 -0.242348 2.57291
lowerback 18.2887 1.77613 -0.930626
upperback 9.15917 2.1711 0.224846
thorax -0.465274 1.04934 0.367939
lowerneck 5.57797 -5.00752 -5.03081
upperneck -9.72958 -6.71398 5.38478
head -3.82387 -3.40294 3.03391
rclavicle 1.19271e-015 -8.34896e-015
rhumerus 22.3966 4.93674 -71.8363
rradius 113.786
rwrist 20.9966
rhand 19.2121 -4.01686
rfingers 7.12502
rthumb 43.8004 -27.9738
lclavicle 1.19271e-015 -8.34896e-015
lhumerus 24.4314 -20.7917 67.5957
lradius 119.841
lwrist -11.309
lhand 12.4024 37.1278
lfingers 7.12502
lthumb 37.4012 63.0875
rfemur -36.3929 -0.908419 15.8529
rtibia 56.0897
rfoot -22.3652 -11.1603
rtoes -11.7518
lfemur -35.7212 0.692651 -21.8464
ltibia 54.287
lfoot -21.7924 6.49898
ltoes -17.2985
847
root 0.175079 16.6984 -2.30854 3.82455 -0.17671 2.62694
lowerback 18.3584 1.82027 -0.982433
upperback 9.19717 2.22002 0.225481
thorax -0.462644 1.07217 0.387566
lowerneck 5.65107 -5.04235 -4.99788
upperneck -9.80599 -6.76469 5.33524
head -3.86475 -3.42704 3.01939
rclavicle -2.26615e-014 1.98785e-015
rhumerus 22.0952 4.81504 -71.9885
rradius 113.828
rwrist 21.0078
rhand 19.2525 -4.06898
rfingers 7.12502
rthumb 43.8381 -28.012
lclavicle -2.26615e-014 1.98785e-015
lhumerus 24.6633 -20.8741 67.6222
lradius 119.678
lwrist -11.4963
lhand 12.2005 37.5773
lfingers 7.12502
lthumb 37.2104 63.5871
rfemur -36.3831 -0.991563 15.8036
rtibia 56.2584
rfoot -22.4198 -11.1802
rtoes -11.7926
lfemur -35.7191 0.635915 -21.8817
ltibia 54.4272
lfoot -21.8344 6.31414
ltoes -16.7071
848
root 0.172773 16.6902 -2.30848 3.77777 -0.100863 2.7084
lowerback 18.3594 1.85756 -1.05796
upperback 9.25612 2.25762 0.233121
thorax -0.40333 1.08825 0.43244
lowerneck 5.71134 -5.0589 -5.05548
upperneck -9.90928 -6.79222 5.35194
head -3.90937 -3.43914 3.04372
rclavicle -7.15625e-015 1.98785e-015
rhumerus 21.8541 4.705 -72.0844
rradius 113.921
rwrist 20.8977
rhand 19.1807 -4.1877
rfingers 7.12502
rthumb 43.7711 -28.1554
lclavicle -7.15625e-015 1.98785e-015
lhumerus 24.8937 -20.8078 67.7401
lradius 119.475
lwrist -11.8748
lhand 11.9153 37.5137
lfingers 7.12502
lthumb 36.9406 63.5935
rfemur -36.3974 -1.05303 15.7177
rtibia 56.4186
rfoot -22.4955 -11.1886
rtoes -11.8821
lfemur -35.7318 0.574597 -21.9638
ltibia 54.5344
lfoot -21.931 6.3609
ltoes -16.9035
849
root 0.171118 16.6818 -2.30712 3.76936 -0.0530759 2.83953
lowerback 18.298 1.89771 -1.18057
upperback 9.30596 2.29188 0.213203
thorax -0.322382 1.10166 0.4772
lowerneck 5.76622 -5.08982 -5.02613
upperneck -9.97984 -6.83717 5.30566
head -3.94489 -3.46027 3.02973
rclavicle 3.57812e-015 -6.36111e-015
rhumerus 21.5989 4.62969 -72.2148
rradius 114.04
rwrist 20.7327
rhand 19.0969 -4.24676
rfingers 7.12502
rthumb 43.6928 -28.2433
lclavicle 3.57812e-015 -6.36111e-015
lhumerus 25.0764 -20.8101 67.783
lradius 119.392
lwrist -12.1738
lhand 12.0157 37.5537
lfingers 7.12502
lthumb 37.0356 63.609
rfemur -36.4612 -1.116 15.5719
rtibia 56.5755
rfoot -22.631 -11.1197
rtoes -11.8217
lfemur -35.7785 0.549101 -22.1256
ltibia 54.6317
lfoot -21.9826 6.46743
ltoes -17.1785
850
root 0.167948 16.6762 -2.30529 3.73132 -0.0167847 2.80485
lowerback 18.2824 1.9121 -1.19203
upperback 9.35022 2.31042 0.253732
thorax -0.269293 1.10927 0.524312
lowerneck 5.66427 -5.07975 -5.05451
upperneck -9.85144 -6.82737 5.26785
head -3.88002 -3.45269 3.01116
rclavicle 3.97569e-016 -9.54166e-015
rhumerus 21.3464 4.70336 -72.3873
rradius 114.164
rwrist 20.5774
rhand 18.9581 -4.2566
rfingers 7.12502
rthumb 43.5633 -28.3004
lclavicle 3.97569e-016 -9.54166e-015
lhumerus 25.1931 -20.8369 67.7743
lradius 119.399
lwrist -12.3377
lhand 12.1 37.726
lfingers 7.12502
lthumb 37.1153 63.7606
rfemur -36.4685 -1.15586 15.6256
rtibia 56.6863
rfoot -22.6323 -11.1523
rtoes -12.0378
lfemur -35.7914 0.543487 -22.082
ltibia 54.7262
lfoot -21.9697 6.44799
ltoes -17.1922
851
root 0.164304 16.6713 -2.30599 3.66462 0.0229474 2.74564
lowerback 18.3178 1.91591 -1.19146
upperback 9.42212 2.31672 0.313972
thorax -0.212757 1.11051 0.586641
lowerneck 5.51997 -5.05204 -5.14896
upperneck -9.73266 -6.79698 5.24045
head -3.80935 -3.43265 3.00581
rclavicle -1.55052e-014 8.74653e-015
rhumerus 21.1847 4.81122 -72.5474
rradius 114.29
rwrist 20.4314
rhand 18.8905 -4.33841
rfingers 7.12502
rthumb 43.5001 -28.4052
lclavicle -1.55052e-014 8.74653e-015
lhumerus 25.3325 -20.7691 67.791
lradius 119.394
lwrist -12.3638
lhand 11.9279 37.6285
lfingers 7.12502
lthumb 36.9525 63.7052
rfemur -36.4397 -1.17342 15.7037
rtibia 56.7755
rfoot -22.6724 -11.155
rtoes -11.9906
lfemur -35.7705 0.526962 -21.9983
ltibia 54.8065
lfoot -22.0683 6.43939
ltoes -16.9502
852
root 0.163166 16.6667 -2.30723 3.62417 0.0591099 2.74496
lowerback 18.3531 1.91961 -1.15269
upperback 9.47125 2.3275 0.317817
thorax -0.177002 1.11692 0.566841
lowerneck 5.55603 -5.0415 -5.18861
upperneck -9.75697 -6.79073 5.21085
head -3.8252 -3.42674 3.00534
rclavicle 3.85642e-014 -1.98785e-015
rhumerus 20.9915 4.84065 -72.7313
rradius 114.42
rwrist 20.3313
rhand 18.8397 -4.38305
rfingers 7.12502
rthumb 43.4527 -28.4671
lclavicle 3.85642e-014 -1.98785e-015
lhumerus 25.4533 -20.68 67.8018
lradius 119.443
lwrist -12.5058
lhand 12.4671 37.2573
lfingers 7.12502
lthumb 37.4624 63.2008
rfemur -36.4276 -1.21352 15.7087
rtibia 56.8379
rfoot -22.6809 -11.147
rtoes -11.7982
lfemur -35.7747 0.49777 -22.0049
ltibia 54.8817
lfoot -22.1239 6.61408
ltoes -17.727
